<?xml version="1.0" encoding="UTF-8"?>
<!DOCTYPE svg PUBLIC "-//W3C//DTD SVG 1.1//EN" "http://www.w3.org/Graphics/SVG/1.1/DTD/svg11.dtd">
<svg xmlns="http://www.w3.org/2000/svg" xmlns:xlink="http://www.w3.org/1999/xlink" version="1.1" width="2254px" height="724px" viewBox="-0.5 -0.5 2254 724"><defs><clipPath id="mx-clip-10-238-352-64-0"><rect x="10" y="238" width="352" height="64"/></clipPath><clipPath id="mx-clip-10-298-352-64-0"><rect x="10" y="298" width="352" height="64"/></clipPath><clipPath id="mx-clip-10-373-352-64-0"><rect x="10" y="373" width="352" height="64"/></clipPath><clipPath id="mx-clip-10-418-352-64-0"><rect x="10" y="418" width="352" height="64"/></clipPath><clipPath id="mx-clip-610-208-352-64-0"><rect x="610" y="208" width="352" height="64"/></clipPath><clipPath id="mx-clip-610-268-352-64-0"><rect x="610" y="268" width="352" height="64"/></clipPath><clipPath id="mx-clip-610-343-352-64-0"><rect x="610" y="343" width="352" height="64"/></clipPath><clipPath id="mx-clip-610-388-352-64-0"><rect x="610" y="388" width="352" height="64"/></clipPath><clipPath id="mx-clip-610-448-352-64-0"><rect x="610" y="448" width="352" height="64"/></clipPath><clipPath id="mx-clip-1210-208-352-64-0"><rect x="1210" y="208" width="352" height="64"/></clipPath><clipPath id="mx-clip-1210-268-352-64-0"><rect x="1210" y="268" width="352" height="64"/></clipPath><clipPath id="mx-clip-1210-343-352-64-0"><rect x="1210" y="343" width="352" height="64"/></clipPath><clipPath id="mx-clip-1210-388-352-64-0"><rect x="1210" y="388" width="352" height="64"/></clipPath><clipPath id="mx-clip-1210-448-352-64-0"><rect x="1210" y="448" width="352" height="64"/></clipPath><clipPath id="mx-clip-1810-88-352-64-0"><rect x="1810" y="88" width="352" height="64"/></clipPath><clipPath id="mx-clip-1810-163-352-64-0"><rect x="1810" y="163" width="352" height="64"/></clipPath><clipPath id="mx-clip-1810-208-352-64-0"><rect x="1810" y="208" width="352" height="64"/></clipPath><clipPath id="mx-clip-1810-268-352-64-0"><rect x="1810" y="268" width="352" height="64"/></clipPath><clipPath id="mx-clip-1810-538-352-64-0"><rect x="1810" y="538" width="352" height="64"/></clipPath><clipPath id="mx-clip-1810-613-352-64-0"><rect x="1810" y="613" width="352" height="64"/></clipPath><clipPath id="mx-clip-1810-658-352-64-0"><rect x="1810" y="658" width="352" height="64"/></clipPath></defs><g><path d="M 0 240 L 0 150 L 360 150 L 360 240" fill="#dae8fc" stroke="#6c8ebf" stroke-width="3" stroke-miterlimit="10" pointer-events="all"/><path d="M 0 240 L 0 480 L 360 480 L 360 240" fill="none" stroke="#6c8ebf" stroke-width="3" stroke-miterlimit="10" pointer-events="none"/><path d="M 0 240 L 360 240" fill="none" stroke="#6c8ebf" stroke-width="3" stroke-miterlimit="10" pointer-events="none"/><g fill="#666666" font-family="Helvetica" pointer-events="none" text-anchor="middle" font-size="48px"><text x="179.5" y="215.5">Users</text></g><g fill="#808080" font-family="Helvetica" pointer-events="none" clip-path="url(#mx-clip-10-238-352-64-0)" font-size="36px"><text x="11.5" y="284.5">- ID</text></g><g fill="#808080" font-family="Helvetica" pointer-events="none" clip-path="url(#mx-clip-10-298-352-64-0)" font-size="36px"><text x="11.5" y="344.5">- Name</text></g><g fill="#808080" font-family="Helvetica" pointer-events="none" clip-path="url(#mx-clip-10-373-352-64-0)" font-size="36px"><text x="11.5" y="407.5">- Email</text></g><g fill="#808080" font-family="Helvetica" pointer-events="none" clip-path="url(#mx-clip-10-418-352-64-0)" font-size="36px"><text x="11.5" y="464.5">- PW</text></g><path d="M 600 210 L 600 120 L 960 120 L 960 210" fill="#d5e8d4" stroke="#82b366" stroke-width="3" stroke-miterlimit="10" pointer-events="none"/><path d="M 600 210 L 600 510 L 960 510 L 960 210" fill="none" stroke="#82b366" stroke-width="3" stroke-miterlimit="10" pointer-events="none"/><path d="M 600 210 L 960 210" fill="none" stroke="#82b366" stroke-width="3" stroke-miterlimit="10" pointer-events="none"/><g fill="#666666" font-family="Helvetica" pointer-events="none" text-anchor="middle" font-size="48px"><text x="779.5" y="185.5">Interaction</text></g><g fill="#808080" font-family="Helvetica" pointer-events="none" clip-path="url(#mx-clip-610-208-352-64-0)" font-size="36px"><text x="611.5" y="254.5">- ID</text></g><g fill="#808080" font-family="Helvetica" pointer-events="none" clip-path="url(#mx-clip-610-268-352-64-0)" font-size="36px"><text x="611.5" y="314.5">- user_ID</text></g><g fill="#808080" font-family="Helvetica" pointer-events="none" clip-path="url(#mx-clip-610-343-352-64-0)" font-size="36px"><text x="611.5" y="377.5">- song_ID</text></g><g fill="#808080" font-family="Helvetica" pointer-events="none" clip-path="url(#mx-clip-610-388-352-64-0)" font-size="36px"><text x="611.5" y="434.5">- rating</text></g><g fill="#808080" font-family="Helvetica" pointer-events="none" clip-path="url(#mx-clip-610-448-352-64-0)" font-size="36px"><text x="611.5" y="494.5">- timestamp</text></g><path d="M 1200 210 L 1200 120 L 1560 120 L 1560 210" fill="#ffe6cc" stroke="#d79b00" stroke-width="3" stroke-miterlimit="10" pointer-events="none"/><path d="M 1200 210 L 1200 510 L 1560 510 L 1560 210" fill="none" stroke="#d79b00" stroke-width="3" stroke-miterlimit="10" pointer-events="none"/><path d="M 1200 210 L 1560 210" fill="none" stroke="#d79b00" stroke-width="3" stroke-miterlimit="10" pointer-events="none"/><g fill="#666666" font-family="Helvetica" pointer-events="none" text-anchor="middle" font-size="48px"><text x="1379.5" y="185.5">Song</text></g><g fill="#808080" font-family="Helvetica" pointer-events="none" clip-path="url(#mx-clip-1210-208-352-64-0)" font-size="36px"><text x="1211.5" y="254.5">- ID</text></g><g fill="#808080" font-family="Helvetica" pointer-events="none" clip-path="url(#mx-clip-1210-268-352-64-0)" font-size="36px"><text x="1211.5" y="314.5">- albun_ID</text></g><g fill="#808080" font-family="Helvetica" pointer-events="none" clip-path="url(#mx-clip-1210-343-352-64-0)" font-size="36px"><text x="1211.5" y="377.5">- artist_ID</text></g><g fill="#808080" font-family="Helvetica" pointer-events="none" clip-path="url(#mx-clip-1210-388-352-64-0)" font-size="36px"><text x="1211.5" y="434.5">-  title</text></g><g fill="#808080" font-family="Helvetica" pointer-events="none" clip-path="url(#mx-clip-1210-448-352-64-0)" font-size="36px"><text x="1211.5" y="494.5">- length</text></g><path d="M 1800 90 L 1800 0 L 2160 0 L 2160 90" fill="#f8cecc" stroke="#b85450" stroke-width="3" stroke-miterlimit="10" pointer-events="none"/><path d="M 1800 90 L 1800 330 L 2160 330 L 2160 90" fill="none" stroke="#b85450" stroke-width="3" stroke-miterlimit="10" pointer-events="none"/><path d="M 1800 90 L 2160 90" fill="none" stroke="#b85450" stroke-width="3" stroke-miterlimit="10" pointer-events="none"/><g fill="#666666" font-family="Helvetica" pointer-events="none" text-anchor="middle" font-size="48px"><text x="1979.5" y="65.5">Album</text></g><g fill="#808080" font-family="Helvetica" pointer-events="none" clip-path="url(#mx-clip-1810-88-352-64-0)" font-size="36px"><text x="1811.5" y="134.5">- ID</text></g><g fill="#808080" font-family="Helvetica" pointer-events="none" clip-path="url(#mx-clip-1810-163-352-64-0)" font-size="36px"><text x="1811.5" y="197.5">- artist_ID</text></g><g fill="#808080" font-family="Helvetica" pointer-events="none" clip-path="url(#mx-clip-1810-208-352-64-0)" font-size="36px"><text x="1811.5" y="254.5">- title</text></g><g fill="#808080" font-family="Helvetica" pointer-events="none" clip-path="url(#mx-clip-1810-268-352-64-0)" font-size="36px"><text x="1811.5" y="314.5">-  release data</text></g><path d="M 1800 540 L 1800 450 L 2160 450 L 2160 540" fill="#e1d5e7" stroke="#9673a6" stroke-width="3" stroke-miterlimit="10" pointer-events="none"/><path d="M 1800 540 L 1800 720 L 2160 720 L 2160 540" fill="none" stroke="#9673a6" stroke-width="3" stroke-miterlimit="10" pointer-events="none"/><path d="M 1800 540 L 2160 540" fill="none" stroke="#9673a6" stroke-width="3" stroke-miterlimit="10" pointer-events="none"/><g fill="#666666" font-family="Helvetica" pointer-events="none" text-anchor="middle" font-size="48px"><text x="1979.5" y="515.5">Artist</text></g><g fill="#808080" font-family="Helvetica" pointer-events="none" clip-path="url(#mx-clip-1810-538-352-64-0)" font-size="36px"><text x="1811.5" y="584.5">- ID</text></g><g fill="#808080" font-family="Helvetica" pointer-events="none" clip-path="url(#mx-clip-1810-613-352-64-0)" font-size="36px"><text x="1811.5" y="647.5">- name</text></g><g fill="#808080" font-family="Helvetica" pointer-events="none" clip-path="url(#mx-clip-1810-658-352-64-0)" font-size="36px"><text x="1811.5" y="704.5">- genre</text></g><path d="M 360 270 Q 450 270 480 285 Q 510 300 600 300" fill="none" stroke="#808080" stroke-width="4.5" stroke-miterlimit="10" pointer-events="none"/><path d="M 960 360 Q 1050 360 1080 300 Q 1110 240 1200 240" fill="none" stroke="#808080" stroke-width="4.5" stroke-miterlimit="10" pointer-events="none"/><path d="M 1560 300 Q 1650 300 1680 210 Q 1710 120 1800 120" fill="none" stroke="#808080" stroke-width="4.5" stroke-miterlimit="10" pointer-events="none"/><path d="M 1560 360 Q 1650 360 1680 465 Q 1710 570 1800 570" fill="none" stroke="#808080" stroke-width="4.5" stroke-miterlimit="10" pointer-events="none"/><path d="M 2160 180 Q 2250 180 2250 375 Q 2250 570 2160 570" fill="none" stroke="#808080" stroke-width="4.5" stroke-miterlimit="10" pointer-events="none"/></g></svg>